<svg
  height="30"
  viewBox="0 0 42 30"
  width="42"
  xmlns="http://www.w3.org/2000/svg"
>
  <title>Internet Archive's 25th Anniversary Logo</title>
  <path
    d="m6.89441101 18.3847952c2.09337919-.6594721 3.78263109-1.0696316 5.74668959-1.5521722 3.6128977-.9007423 6.1588994-3.5949271 6.1588994-7.02900738 0-5.62963982-4.0412726-9.80361562-9.44041273-9.80361562-5.17282889 0-9.19793637 4.61630465-9.35958727 10.7847814h.65468616c.80825451-2.69418475 4.27566638-4.73693977 8.54325021-4.73693977 3.93619953 0 6.89441103 2.12317844 6.89441103 5.38836957 0 1.9623316-1.6165091 3.4340802-4.105933 4.08551-1.6811693.4503712-3.40275146.9007424-5.09200339 1.3109018-3.97661221.9329118-6.73276011 4.1659335-6.73276011 7.6723949v4.7449821h18.3150473v-6.0478416h-16.26208083c.59192357-2.3174159 2.37222905-4.1500562 4.67979364-4.8173632zm24.22752669-6.44482c-2.3496035-.0494972-4.6516613.653692-6.557606 2.0030941l-.3360773-.1608911.4180474-6.9022277h15.7382543v-6.1299505h-16.7956682l-.8770798 14.7456683 1.3770972.5711634c.4572285-.397399.960743-.7403336 1.5000524-1.0216584 1.6153611-.9360711 3.4522659-1.4408386 5.3280548-1.4641089 4.6559002 0 7.8691272 2.2042079 7.8691272 5.1485148s-3.4181521 5.1404703-7.9920823 5.1404703c-4.2460499 0-7.9101122-2.0352723-9.0740872-4.9795792h-.6639702c-.0081845 6.3873762 4.0001522 11.1095297 10.0659377 11.1095297 5.8280723 0 10.2380623-3.7568069 10.2380623-9.3155941 0-5.0600247-4.450975-8.7444307-10.2790473-8.7444307z"
    fill="#fff"
  ></path>
</svg>
